<?xml version="1.0" ?><svg id="Capa_1" style="enable-background:new 0 0 150 150;" version="1.1" viewBox="0 0 150 150" xml:space="preserve" xmlns="http://www.w3.org/2000/svg" xmlns:xlink="http://www.w3.org/1999/xlink"><style type="text/css">
	.st0{fill:#1A73E8;}
	.st1{fill:#EA4335;}
	.st2{fill:#4285F4;}
	.st3{fill:#FBBC04;}
	.st4{fill:#34A853;}
	.st5{fill:#4CAF50;}
	.st6{fill:#1E88E5;}
	.st7{fill:#E53935;}
	.st8{fill:#C62828;}
	.st9{fill:#FBC02D;}
	.st10{fill:#1565C0;}
	.st11{fill:#2E7D32;}
	.st12{fill:#F6B704;}
	.st13{fill:#E54335;}
	.st14{fill:#4280EF;}
	.st15{fill:#34A353;}
	.st16{clip-path:url(#SVGID_2_);}
	.st17{fill:#188038;}
	.st18{opacity:0.2;fill:#FFFFFF;enable-background:new    ;}
	.st19{opacity:0.3;fill:#0D652D;enable-background:new    ;}
	.st20{clip-path:url(#SVGID_4_);}
	.st21{opacity:0.3;fill:url(#_45_shadow_1_);enable-background:new    ;}
	.st22{clip-path:url(#SVGID_6_);}
	.st23{fill:#FA7B17;}
	.st24{opacity:0.3;fill:#174EA6;enable-background:new    ;}
	.st25{opacity:0.3;fill:#A50E0E;enable-background:new    ;}
	.st26{opacity:0.3;fill:#E37400;enable-background:new    ;}
	.st27{fill:url(#Finish_mask_1_);}
	.st28{fill:#FFFFFF;}
	.st29{fill:#0C9D58;}
	.st30{opacity:0.2;fill:#004D40;enable-background:new    ;}
	.st31{opacity:0.2;fill:#3E2723;enable-background:new    ;}
	.st32{fill:#FFC107;}
	.st33{opacity:0.2;fill:#1A237E;enable-background:new    ;}
	.st34{opacity:0.2;}
	.st35{fill:#1A237E;}
	.st36{fill:url(#SVGID_7_);}
	.st37{fill:#FBBC05;}
	.st38{clip-path:url(#SVGID_9_);fill:#E53935;}
	.st39{clip-path:url(#SVGID_11_);fill:#FBC02D;}
	.st40{clip-path:url(#SVGID_13_);fill:#E53935;}
	.st41{clip-path:url(#SVGID_15_);fill:#FBC02D;}
</style><g><path class="st7" d="M27.6,99.9c0-6.1,4.9-11,11-11h53.9c6.1,0,11,4.9,11,11c0,6.1-4.9,11-11,11H38.7C32.6,111,27.6,106,27.6,99.9   L27.6,99.9z M38.7,105.2c2.9,0,5.3-2.4,5.3-5.3s-2.4-5.3-5.3-5.3c-2.9,0-5.3,2.4-5.3,5.3S35.7,105.2,38.7,105.2z M92.6,105.2   c2.9,0,5.3-2.4,5.3-5.3s-2.4-5.3-5.3-5.3c-2.9,0-5.3,2.4-5.3,5.3S89.6,105.2,92.6,105.2z"/><path class="st9" d="M40,61.8c3.6-4.9,10.5-6,15.4-2.4L99.1,91c4.9,3.6,6,10.5,2.4,15.4c-3.6,4.9-10.5,6-15.4,2.4L42.5,77.2   C37.6,73.6,36.5,66.7,40,61.8L40,61.8z M45.8,72.5c2.4,1.7,5.7,1.2,7.4-1.2c1.7-2.4,1.2-5.7-1.2-7.4s-5.7-1.2-7.4,1.2   C42.9,67.5,43.5,70.8,45.8,72.5L45.8,72.5z M89.5,104.2c2.4,1.7,5.7,1.2,7.4-1.2c1.7-2.4,1.2-5.7-1.2-7.4c-2.4-1.7-5.7-1.2-7.4,1.2   S87.1,102.5,89.5,104.2L89.5,104.2z"/><path class="st5" d="M72.5,38.2c5.8-1.9,12,1.3,13.9,7.1l16.7,51.3c1.9,5.8-1.3,12-7.1,13.9c-5.8,1.9-12-1.3-13.9-7.1L65.4,52.1   C63.6,46.3,66.7,40.1,72.5,38.2L72.5,38.2z M70.9,50.3c0.9,2.8,3.9,4.3,6.7,3.4c2.8-0.9,4.3-3.9,3.4-6.7c-0.9-2.8-3.9-4.3-6.7-3.4   C71.5,44.5,70,47.5,70.9,50.3L70.9,50.3z M87.5,101.6c0.9,2.8,3.9,4.3,6.7,3.4c2.8-0.9,4.3-3.9,3.4-6.7c-0.9-2.8-3.9-4.3-6.7-3.4   C88.1,95.8,86.6,98.8,87.5,101.6L87.5,101.6z"/><path class="st6" d="M113.7,38.5c5.8,2,8.8,8.3,6.8,14l-17.5,51c-2,5.8-8.3,8.8-14,6.8c-5.8-2-8.8-8.3-6.8-14l17.6-51   C101.7,39.6,108,36.6,113.7,38.5L113.7,38.5z M105.1,47.2c-1,2.8,0.5,5.8,3.3,6.7c2.8,1,5.8-0.5,6.7-3.3c1-2.8-0.5-5.8-3.3-6.7   S106.1,44.5,105.1,47.2z M87.6,98.2c-1,2.8,0.5,5.8,3.3,6.7c2.8,1,5.8-0.5,6.7-3.3c1-2.8-0.5-5.8-3.3-6.7   C91.5,94,88.5,95.4,87.6,98.2z"/></g></svg>