<?xml version="1.0" encoding="UTF-8"?>
<svg id="e" data-name="Standard" xmlns="http://www.w3.org/2000/svg" viewBox="0 0 2000 680">
  <defs>
    <style>
      .j {
        fill: #fff;
        opacity: 0;
      }

      .j, .k {
        stroke-width: 0px;
      }

      .k {
        fill: #32373c;
      }
    </style>
  </defs>
  <rect id="f" data-name="Safety Area" class="j" width="2000" height="680"/>
  <g id="g" data-name="Logotype">
    <g id="h" data-name="Wordmark">
      <path class="k" d="M1114.48,295.3h-67.42v7.15c21.09,0,24.48,4.52,24.48,31.26v48.21c0,26.74-3.39,31.64-24.48,31.64-16.19-2.26-27.12-10.92-42.18-27.5l-17.32-18.83c23.35-4.15,35.78-18.83,35.78-35.41,0-20.71-17.7-36.53-50.84-36.53h-66.29v7.15c21.09,0,24.48,4.52,24.48,31.26v48.21c0,26.74-3.39,31.64-24.48,31.64v7.15h74.95v-7.15c-21.09,0-24.48-4.9-24.48-31.64v-13.56h6.4l41.81,52.35h109.6c53.86,0,77.21-28.62,77.21-62.9s-23.35-62.52-77.21-62.52ZM956.67,356.68v-50.09h15.44c16.95,0,24.48,11.67,24.48,25.23s-7.54,24.86-24.48,24.86h-15.44ZM1115.61,409.04h-2.64c-13.56,0-15.44-3.39-15.44-20.72v-81.73h18.08c39.17,0,46.33,28.62,46.33,50.84s-7.16,51.6-46.33,51.6Z"/>
      <path class="k" d="M696.42,370.62l25.99-76.84c7.54-22.22,4.15-28.62-19.96-28.62v-7.54h70.81v7.54c-23.73,0-29.38,5.65-38.79,33.14l-42.94,128.81h-4.89l-38.42-117.89-39.17,117.89h-4.9l-41.81-128.81c-9.04-27.5-15.07-33.14-36.91-33.14v-7.54h83.62v7.54c-22.22,0-28.25,5.27-20.34,28.62l25.23,76.84,38.04-113h7.16l37.29,113Z"/>
      <path class="k" d="M824.47,425.61c-41.43,0-75.33-30.51-75.33-67.8s33.9-67.42,75.33-67.42,75.33,30.51,75.33,67.42-33.9,67.8-75.33,67.8ZM824.47,302.08c-34.65,0-46.7,31.26-46.7,55.74s12.06,55.75,46.7,55.75,47.08-30.88,47.08-55.75-12.05-55.74-47.08-55.74Z"/>
      <path class="k" d="M1284.71,413.18v7.53h-86.25v-7.53c25.24,0,29.75-6.4,29.75-44.07v-60.26c0-37.67-4.52-43.69-29.75-43.69v-7.54h77.96c38.79,0,60.27,19.96,60.27,46.71s-21.47,46.33-60.27,46.33h-21.47v18.45c0,37.67,4.52,44.07,29.75,44.07ZM1276.43,271.19h-21.47v65.54h21.47c21.09,0,30.88-14.69,30.88-32.39s-9.79-33.15-30.88-33.15Z"/>
      <path class="k" d="M1595.44,385.31l-1.88,6.78c-3.39,12.43-7.54,16.95-34.27,16.95h-5.28c-19.58,0-22.97-4.52-22.97-31.26v-17.32c29.38,0,31.64,2.63,31.64,22.22h7.16v-56.12h-7.16c0,19.59-2.26,22.22-31.64,22.22v-42.18h20.71c26.74,0,30.89,4.52,34.27,16.95l1.89,7.15h6.02l-2.63-35.4h-110.73v7.15c21.09,0,24.48,4.52,24.48,31.26v48.21c0,24.46-2.88,30.62-19.51,31.5-15.81-2.41-26.66-11.03-41.5-27.36l-17.33-18.83c23.35-4.15,35.78-18.83,35.78-35.41,0-20.71-17.7-36.53-50.84-36.53h-66.29v7.15c21.09,0,24.48,4.52,24.48,31.26v48.21c0,26.74-3.39,31.64-24.48,31.64v7.15h74.95v-7.15c-21.09,0-24.48-4.9-24.48-31.64v-13.56h6.4l41.81,52.35h154.79l2.26-35.4h-5.65ZM1395.83,356.68v-50.09h15.44c16.95,0,24.48,11.67,24.48,25.23s-7.54,24.86-24.48,24.86h-15.44Z"/>
      <path class="k" d="M1671.9,425.61c-15.07,0-28.25-7.91-33.9-12.81-1.88,1.89-5.27,7.54-6.02,12.81h-7.16v-51.97h7.53c3.02,24.86,20.34,39.55,42.56,39.55,12.05,0,21.85-6.78,21.85-18.08,0-9.79-8.67-17.33-24.11-24.48l-21.47-10.17c-15.07-7.16-26.37-19.59-26.37-36.16,0-18.08,16.95-33.52,40.3-33.52,12.43,0,22.97,4.52,29.38,9.79,1.88-1.51,3.76-5.65,4.9-10.17h7.15v44.45h-7.91c-2.64-17.7-12.43-32.39-32.39-32.39-10.55,0-20.34,6.03-20.34,15.44s7.91,15.06,25.99,23.35l20.71,10.17c18.08,8.66,25.24,22.6,25.24,33.9,0,23.73-20.72,40.3-45.95,40.3Z"/>
      <path class="k" d="M1785.78,425.61c-15.07,0-28.25-7.91-33.9-12.81-1.88,1.89-5.27,7.54-6.02,12.81h-7.16v-51.97h7.53c3.02,24.86,20.34,39.55,42.56,39.55,12.05,0,21.85-6.78,21.85-18.08,0-9.79-8.67-17.33-24.11-24.48l-21.47-10.17c-15.07-7.16-26.37-19.59-26.37-36.16,0-18.08,16.95-33.52,40.3-33.52,12.43,0,22.97,4.52,29.38,9.79,1.88-1.51,3.76-5.65,4.89-10.17h7.16v44.45h-7.91c-2.64-17.7-12.43-32.39-32.39-32.39-10.55,0-20.34,6.03-20.34,15.44s7.91,15.06,25.99,23.35l20.71,10.17c18.08,8.66,25.24,22.6,25.24,33.9,0,23.73-20.72,40.3-45.95,40.3Z"/>
    </g>
    <g id="i" data-name="W Mark">
      <path class="k" d="M338.98,179.66c21.51,0,42.38,4.21,62.01,12.52,9.44,3.99,18.54,8.93,27.06,14.69,8.44,5.7,16.37,12.25,23.59,19.46,7.21,7.21,13.76,15.15,19.46,23.59,5.75,8.52,10.7,17.62,14.69,27.06,8.31,19.64,12.52,40.5,12.52,62.01s-4.21,42.38-12.52,62.01c-3.99,9.44-8.93,18.54-14.69,27.06-5.7,8.44-12.25,16.37-19.46,23.59-7.21,7.21-15.15,13.76-23.59,19.46-8.52,5.75-17.62,10.7-27.06,14.69-19.64,8.31-40.5,12.52-62.01,12.52s-42.38-4.21-62.01-12.52c-9.44-3.99-18.54-8.93-27.06-14.69-8.44-5.7-16.37-12.25-23.59-19.46-7.21-7.21-13.76-15.15-19.46-23.59-5.75-8.52-10.7-17.62-14.69-27.06-8.31-19.64-12.52-40.5-12.52-62.01s4.21-42.38,12.52-62.01c3.99-9.44,8.93-18.54,14.69-27.06,5.7-8.44,12.25-16.37,19.46-23.59,7.21-7.21,15.15-13.76,23.59-19.46,8.52-5.75,17.62-10.7,27.06-14.69,19.64-8.31,40.5-12.52,62.01-12.52M338.98,169.49c-93.61,0-169.49,75.88-169.49,169.49s75.88,169.49,169.49,169.49,169.49-75.88,169.49-169.49-75.88-169.49-169.49-169.49h0Z"/>
      <path class="k" d="M197.74,338.98c0,55.9,32.49,104.22,79.61,127.11l-67.38-184.59c-7.84,17.56-12.23,37-12.23,57.48ZM434.33,331.85c0-17.46-6.27-29.55-11.64-38.95-7.16-11.64-13.87-21.49-13.87-33.13,0-12.98,9.84-25.07,23.72-25.07.63,0,1.22.08,1.83.11-25.13-23.02-58.61-37.08-95.38-37.08-49.35,0-92.76,25.32-118.01,63.66,3.32.1,6.44.17,9.09.17,14.77,0,37.64-1.8,37.64-1.8,7.61-.45,8.51,10.74.9,11.64,0,0-7.65.9-16.16,1.34l51.43,152.99,30.91-92.7-22-60.29c-7.61-.45-14.81-1.34-14.81-1.34-7.61-.45-6.72-12.09.9-11.64,0,0,23.32,1.8,37.2,1.8,14.77,0,37.65-1.8,37.65-1.8,7.61-.45,8.51,10.74.9,11.64,0,0-7.66.9-16.16,1.34l51.04,151.83,14.57-46.17c6.47-20.18,10.27-34.47,10.27-46.56ZM341.46,351.33l-42.38,123.14c12.66,3.72,26.04,5.76,39.9,5.76,16.45,0,32.23-2.84,46.91-8.01-.38-.6-.73-1.25-1.01-1.95l-43.41-118.94ZM462.93,271.22c.61,4.5.95,9.32.95,14.52,0,14.33-2.68,30.44-10.74,50.59l-43.14,124.73c41.99-24.48,70.23-69.97,70.23-122.08,0-24.56-6.28-47.64-17.3-67.76Z"/>
    </g>
  </g>
</svg>